HIERARCHY
ROOT Hips
{
	OFFSET	0.00	0.00	0.00
	CHANNELS 6 Xposition Yposition Zposition Zrotation Xrotation Yrotation
	JOINT LeftUpLeg
	{
		OFFSET	 0.126116	-0.014019	-0.065224
		CHANNELS 3 Zrotation Xrotation Yrotation
		JOINT LeftLeg
		{
			OFFSET	 0.000000	 0.000000	 0.569914
			CHANNELS 3 Zrotation Xrotation Yrotation
			JOINT LeftFoot
			{
				OFFSET	 0.000000	 0.000000	 0.544423
				CHANNELS 3 Zrotation Xrotation Yrotation
				JOINT LeftToeBase
				{
					OFFSET	 0.000000	 0.000000	 0.207117
					CHANNELS 3 Zrotation Xrotation Yrotation
					End Site
					{
						OFFSET	 0.000000	 0.000000	 0.207117
					}
				}
			}
		}
	}
	JOINT RightUpLeg
	{
		OFFSET	-0.124023	-0.008373	-0.065224
		CHANNELS 3 Zrotation Xrotation Yrotation
		JOINT RightLeg
		{
			OFFSET	 0.000000	 0.000000	 0.570047
			CHANNELS 3 Zrotation Xrotation Yrotation
			JOINT RightFoot
			{
				OFFSET	 0.000000	 0.000000	 0.544354
				CHANNELS 3 Zrotation Xrotation Yrotation
				JOINT RightToeBase
				{
					OFFSET	 0.000000	 0.000000	 0.207540
					CHANNELS 3 Zrotation Xrotation Yrotation
					End Site
					{
						OFFSET	 0.000000	 0.000000	 0.207540
					}
				}
			}
		}
	}
	JOINT Spine
	{
		OFFSET	 0.000184	-0.007763	 0.117403
		CHANNELS 3 Zrotation Xrotation Yrotation
		JOINT Spine1
		{
			OFFSET	 0.000000	 0.000000	 0.137269
			CHANNELS 3 Zrotation Xrotation Yrotation
			JOINT Spine2
			{
				OFFSET	 0.000000	 0.000000	 0.156879
				CHANNELS 3 Zrotation Xrotation Yrotation
				JOINT LeftShoulder
				{
					OFFSET	 0.080501	-0.002496	 0.160144
					CHANNELS 3 Zrotation Xrotation Yrotation
					JOINT LeftArm
					{
						OFFSET	 0.000000	 0.000000	 0.164363
						CHANNELS 3 Zrotation Xrotation Yrotation
						JOINT LeftForeArm
						{
							OFFSET	 0.000000	 0.000000	 0.364576
							CHANNELS 3 Zrotation Xrotation Yrotation
							JOINT LeftHand
							{
								OFFSET	 0.000000	 0.000000	 0.360812
								CHANNELS 3 Zrotation Xrotation Yrotation
								JOINT LeftHandIndex1
								{
									OFFSET	 0.000000	 0.000000	 0.086006
									CHANNELS 3 Zrotation Xrotation Yrotation
									JOINT LeftHandIndex2
									{
										OFFSET	 0.000000	 0.000000	 0.047236
										CHANNELS 3 Zrotation Xrotation Yrotation
										JOINT LeftHandIndex3
										{
											OFFSET	-0.004284	-0.000551	 0.038166
											CHANNELS 3 Zrotation Xrotation Yrotation
											End Site
											{
												OFFSET	-0.004284	-0.000551	 0.038166
											}
										}
									}
								}
							}
						}
					}
				}
				JOINT Neck
				{
					OFFSET	 0.000000	 0.000000	 0.176489
					CHANNELS 3 Zrotation Xrotation Yrotation
					JOINT Head
					{
						OFFSET	 0.000000	-0.001747	 0.077940
						CHANNELS 3 Zrotation Xrotation Yrotation
						End Site
						{
							OFFSET	 0.000000	-0.001747	 0.077940
						}
					}
				}
				JOINT RightShoulder
				{
					OFFSET	-0.080363	 0.000306	 0.159706
					CHANNELS 3 Zrotation Xrotation Yrotation
					JOINT RightArm
					{
						OFFSET	 0.000000	 0.000000	 0.164196
						CHANNELS 3 Zrotation Xrotation Yrotation
						JOINT RightForeArm
						{
							OFFSET	 0.000000	 0.000000	 0.365611
							CHANNELS 3 Zrotation Xrotation Yrotation
							JOINT RightHand
							{
								OFFSET	 0.000000	 0.000000	 0.360648
								CHANNELS 3 Zrotation Xrotation Yrotation
								JOINT RightHandIndex1
								{
									OFFSET	 0.000000	 0.000000	 0.069977
									CHANNELS 3 Zrotation Xrotation Yrotation
									JOINT RightHandIndex2
									{
										OFFSET	 0.000000	 0.000000	 0.052305
										CHANNELS 3 Zrotation Xrotation Yrotation
										JOINT RightHandIndex3
										{
											OFFSET	 0.009002	-0.000782	 0.042196
											CHANNELS 3 Zrotation Xrotation Yrotation
											End Site
											{
												OFFSET	 0.009002	-0.000782	 0.042196
											}
										}
									}
								}
							}
						}
					}
				}
			}
		}
	}
}
MOTION
Frames:    9
Frame Time: 0.03333334
-0.000018	 0.050992	 1.257638	-0.037589	 3.281865	 0.845437	 24.563030	-13.601600	 176.770200	 2.328057	-23.845980	 1.110299	 3.303718	 75.136800	-3.643026	-2.385833	 28.452750	 0.000004	-17.336340	-12.825830	-178.146300	-0.509281	-22.363320	 1.767576	 5.708520	 74.358050	 0.703101	 2.384659	 28.388700	-0.000001	-7.762705	 8.106832	-0.451771	 1.435933	-7.921026	 0.361534	-3.767870	 12.594750	 0.951922	-90.987490	 68.559080	-177.428700	-6.167901	-0.066701	-25.426880	 21.000010	 0.128232	-3.064261	-7.180635	-12.707980	-4.618642	-2.027600	 6.559038	 9.033609	-5.188889	 0.308190	 3.541030	-5.234859	 0.342567	 0.430617	 4.697262	 21.097040	-7.723476	-8.826286	-15.461890	 1.628073	 88.748600	 66.867040	 176.860300	 8.928720	 10.210580	 22.665850	-23.784200	 0.070570	 3.100792	 4.103120	-12.088960	 5.687379	 1.803333	 3.979147	-15.098590	 4.898592	 3.004813	-9.310344	 5.224449	 0.395017	 2.014677
-0.001521	 0.067415	 1.237841	 0.122422	 5.205679	 1.097053	 28.774640	-20.818240	 177.906400	 2.633212	-32.404980	 1.594736	 14.434370	 78.404880	-15.625050	-2.385833	 28.452760	 0.000004	-22.236680	-19.701750	 179.950700	-0.366648	-30.697970	 2.444255	 0.199903	 78.017120	 7.097014	 2.384659	 28.388700	-0.000001	-18.226860	 9.458156	-0.537367	 1.377779	-10.172140	 0.293905	-3.733901	 16.726610	 1.235416	-90.827020	 66.762130	-177.238100	-4.193442	 1.583897	-30.648440	 14.426770	 0.869499	-5.791142	-5.867374	-15.100120	-6.132049	-2.027600	 6.559038	 9.033609	-5.188889	 0.308190	 3.541030	-5.234859	 0.342567	 0.430617	 4.590023	 25.256490	-8.764064	-8.056318	-18.188820	 1.402058	 88.410630	 63.692140	 176.456200	 5.835413	 12.417720	 26.522400	-18.325190	 0.807478	 5.828694	 1.494387	-13.082920	 5.408490	 1.803333	 3.979147	-15.098590	 4.898592	 3.004813	-9.310344	 5.224449	 0.395017	 2.014677
-0.002698	 0.086203	 1.225255	 0.372486	 7.489132	 1.244473	 31.534040	-26.358700	 179.763200	 2.638711	-37.044410	 1.841704	 28.531370	 78.974120	-30.773230	-2.385832	 28.452790	-0.000001	-26.000100	-24.912650	 177.678600	-0.661318	-34.919620	 2.570838	-10.534960	 79.303700	 19.301550	 2.384659	 28.388700	-0.000001	-26.263400	 10.470280	-0.594706	 1.329899	-10.959120	 0.239335	-3.617842	 19.040010	 1.359878	-91.133490	 65.226730	-178.274000	-2.751344	 2.692694	-34.207920	 8.016089	 1.884157	-8.041124	-6.158691	-16.504940	-7.981294	-2.027600	 6.559038	 9.033609	-5.188889	 0.308190	 3.541030	-5.234859	 0.342567	 0.430617	 4.022384	 26.739320	-8.796974	-7.243889	-19.145440	 1.141965	 88.653090	 61.462380	 177.326800	 2.335742	 13.710380	 29.219870	-13.103320	 1.816209	 8.085556	-0.399885	-13.621780	 5.805942	 1.803333	 3.979147	-15.098590	 4.898592	 3.004813	-9.310344	 5.224449	 0.395017	 2.014677
-0.003679	 0.108724	 1.225068	 0.760621	 10.692380	 1.203075	 31.276870	-30.455910	-177.778200	 2.541357	-37.057750	 1.783487	 35.630790	 76.784350	-38.971360	-2.385832	 28.452790	-0.000001	-26.628190	-28.990660	 175.483400	-1.031376	-34.635140	 2.341428	-20.119930	 77.685460	 30.351560	 2.384659	 28.388700	-0.000001	-33.507880	 11.413460	-0.508403	 1.245006	-11.477830	 0.124196	-3.178772	 20.602470	 1.609781	-92.182220	 64.949810	 178.923600	-1.748805	 5.446603	-36.400660	 2.814297	 3.335194	-10.330380	-6.268232	-17.239680	-9.540590	-2.027600	 6.559038	 9.033609	-5.188889	 0.308190	 3.541030	-5.234859	 0.342567	 0.430617	 3.337620	 26.036490	-8.893744	-6.079723	-18.865100	 0.961995	 89.654630	 60.521960	 179.707600	-2.062791	 16.504080	 31.385770	-7.454969	 3.275333	 10.384550	-1.725382	-14.346080	 6.232642	 1.803333	 3.979147	-15.098590	 4.898592	 3.004813	-9.310344	 5.224449	 0.395017	 2.014677
-0.007527	 0.135659	 1.225335	 1.945966	 15.835170	 1.171266	 30.017090	-36.308940	-174.752100	 3.296760	-36.474020	 2.209413	 39.927500	 73.604780	-45.415390	-2.385833	 28.452760	 0.000004	-28.247230	-34.611130	 172.169700	-0.757307	-34.458910	 2.486650	-30.185930	 75.457030	 41.738950	 2.384659	 28.388700	-0.000001	-38.648480	 11.811270	-0.325494	 0.588515	-10.684060	-0.124398	-2.435790	 20.157860	 1.360156	-93.380940	 65.281190	 175.680000	-1.166533	 7.660222	-37.607390	-1.178358	 5.127207	-12.421690	-5.742129	-17.238490	-10.329280	-2.027600	 6.559038	 9.033609	-5.188889	 0.308190	 3.541030	-5.234859	 0.342567	 0.430617	 2.746274	 24.536570	-8.587121	-4.712059	-18.355630	 0.667869	 90.967160	 60.514600	-177.283500	-6.351980	 18.669110	 26.356190	-3.257001	 6.678706	 29.640520	-2.152928	-14.818930	 6.914355	 1.803333	 3.979147	-15.098590	 4.898592	 3.004813	-9.310344	 5.224449	 0.395017	 2.014677
-0.012681	 0.159322	 1.226396	 3.630104	 20.741340	 0.874349	 27.906310	-41.903160	-172.391600	 4.244492	-35.656950	 2.721030	 39.291410	 70.268570	-47.005370	-2.385833	 28.452760	 0.000004	-30.418520	-39.699980	 168.925300	-1.243103	-34.177600	 2.194973	-34.011880	 72.670190	 47.347690	 2.384659	 28.388700	-0.000001	-40.419280	 11.770600	-0.213251	-0.374536	-8.814143	-0.179220	-1.709199	 18.546910	 0.496065	-94.159100	 65.899150	 173.387500	-1.152427	 8.695580	-38.496540	-4.145334	 6.735410	-13.885050	-5.511560	-17.222780	-10.888070	-2.027600	 6.559038	 9.033609	-5.188889	 0.308190	 3.541030	-5.234859	 0.342567	 0.430617	 2.314820	 23.874710	-7.252584	-3.651142	-18.580880	 0.015355	 91.983440	 61.329240	-174.814300	-9.161722	 20.433150	 26.202030	-1.412418	 10.406580	 39.532180	-2.223361	-14.732990	 7.552952	 1.803333	 3.979147	-15.098590	 4.898592	 3.004813	-9.310344	 5.224449	 0.395017	 2.014677
-0.018665	 0.186105	 1.222179	 4.458261	 23.331520	 0.529281	 26.610170	-46.377800	-170.902300	 4.435703	-36.010790	 2.857288	 40.025140	 68.186610	-49.072000	-2.385833	 28.452750	 0.000004	-31.300650	-44.213820	 166.611700	-1.411143	-35.102390	 2.149896	-37.694230	 71.019490	 52.441520	 2.384659	 28.388700	-0.000001	-38.570580	 12.492340	-0.037636	-0.872017	-4.252146	-0.134847	-0.469826	 16.833090	-0.384454	-94.573540	 68.075580	 171.190800	-2.176202	 9.936987	-40.965980	-6.720198	 8.499853	-15.192260	-5.429861	-17.792860	-11.352110	-2.027600	 6.559038	 9.033609	-5.188889	 0.308190	 3.541030	-5.234859	 0.342567	 0.430617	 1.589367	 22.775980	-6.102207	-2.210155	-19.005050	-0.464226	 92.754220	 62.464810	-172.703000	-9.513200	 21.925990	 28.626400	-0.028737	 14.401050	 46.186100	-0.676809	-15.328700	 8.740262	 1.803333	 3.979147	-15.098590	 4.898592	 3.004813	-9.310344	 5.224449	 0.395017	 2.014677
-0.022274	 0.214638	 1.214108	 3.558400	 25.644720	 0.152287	 27.712500	-50.643550	-168.388300	 4.575973	-36.788100	 2.994666	 40.700150	 66.149570	-51.032780	-2.385833	 28.452750	 0.000004	-29.320630	-49.504030	 165.585900	-2.505096	-35.937820	 1.550852	-36.210950	 68.300480	 53.435300	 2.384659	 28.388700	-0.000001	-32.850060	 13.288880	 0.140513	-0.631059	-1.019649	 0.659579	 1.130654	 15.634740	-0.950008	-94.568150	 70.633740	 169.244400	-3.747745	 10.827280	-43.186080	-9.568159	 10.050840	-16.135810	-6.749742	-19.700700	-11.939740	-2.027600	 6.559038	 9.033609	-5.188889	 0.308190	 3.541030	-5.234859	 0.342567	 0.430617	 0.804070	 21.521940	-5.575599	-0.605459	-19.590210	-0.534258	 93.217700	 64.760690	-170.695300	-9.088905	 23.682440	 30.894850	 1.226982	 18.199680	 50.804360	 2.375590	-16.879900	 10.398720	 1.803333	 3.979147	-15.098590	 4.898592	 3.004813	-9.310344	 5.224449	 0.395017	 2.014677
-0.024172	 0.230521	 1.207828	 3.666786	 27.486150	-1.097415	 28.672260	-52.801170	-165.651100	 5.145717	-36.477520	 3.313532	 40.822220	 64.924780	-52.294380	-2.385833	 28.452750	 0.000004	-27.541750	-53.322980	 166.323300	-4.357041	-36.512070	 0.469608	-33.263390	 66.334720	 53.062460	 2.384659	 28.388700	-0.000001	-25.777490	 13.789490	 0.124486	-0.557803	 1.907850	 1.735870	 2.003584	 14.560100	-1.781856	-95.278340	 69.471660	 167.813800	-5.671386	 9.147158	-44.602700	-11.506490	 11.078500	-16.675570	-7.816601	-20.731470	-12.301410	-2.027600	 6.559038	 9.033609	-5.188889	 0.308190	 3.541030	-5.234859	 0.342567	 0.430617	-0.098608	 23.324240	-3.859230	 0.445094	-22.653890	-1.627589	 93.828710	 64.906500	-168.971600	-8.287827	 22.238850	 32.374400	 2.757846	 20.511910	 51.437930	 4.176119	-17.166310	 11.546560	 1.803333	 3.979147	-15.098590	 4.898592	 3.004813	-9.310344	 5.224449	 0.395017	 2.014677
